<svg width="15" height="17" viewBox="0 0 15 17" fill="none" xmlns="http://www.w3.org/2000/svg">
<path d="M2.90777 5.01002C3.92417 4.59873 4.46791 3.46918 4.05501 2.44877C3.6433 1.43237 0.879422 -0.00012207 0.879422 -0.00012207C0.879422 -0.00012207 -0.112603 2.95301 0.298826 3.96914C0.711867 4.98969 1.88842 5.42268 2.90777 5.00988V5.01002Z" fill="white"/>
<path d="M7.16466 11.0288C7.16466 11.0288 6.14439 13.9035 6.55568 14.9196C6.96845 15.9389 8.14218 16.3742 9.16167 15.9614C10.181 15.5488 10.7213 14.4196 10.3086 13.4003C9.8972 12.3839 7.16466 11.0287 7.16466 11.0287V11.0288Z" fill="white"/>
<path d="M0.779985 9.87964C0.779985 9.87964 -0.339371 12.976 0.10377 14.0707C0.548009 15.1681 1.83746 15.6474 2.93501 15.2029C4.02961 14.7598 4.54269 13.5512 4.09832 12.4535C3.65487 11.3591 0.779985 9.87971 0.779985 9.87971V9.87964Z" fill="white"/>
<path d="M7.14066 8.94156C7.76558 8.68857 8.01388 7.95183 7.79209 7.40405C7.53789 6.77607 5.93666 5.96765 5.93666 5.96765C5.93666 5.96765 5.34805 7.66267 5.60225 8.29092C5.82403 8.83843 6.5139 9.19534 7.14067 8.94156H7.14066Z" fill="white"/>
<path d="M13.2747 8.68128C13.0205 8.0533 11.4193 7.24487 11.4193 7.24487C11.4193 7.24487 10.8307 8.93989 11.0849 9.56815C11.3067 10.1158 11.9967 10.4727 12.6233 10.219C13.2483 9.96577 13.4968 9.22903 13.2747 8.68124L13.2747 8.68128Z" fill="white"/>
<path d="M12.0524 2.63637C11.641 1.62011 8.87697 0.187622 8.87697 0.187622C8.87697 0.187622 7.88494 3.14074 8.29637 4.15687C8.70955 5.17741 9.88611 5.61013 10.9053 5.1975C11.9215 4.78635 12.4655 3.65705 12.0524 2.63627V2.63637Z" fill="white"/>
<path d="M14.8018 14.7413C14.5476 14.1134 12.9464 13.3049 12.9464 13.3049C12.9464 13.3049 12.3578 15 12.612 15.6282C12.8337 16.1759 13.5236 16.5328 14.1504 16.2789C14.7752 16.0259 15.0236 15.2891 14.8018 14.7413H14.8018Z" fill="white"/>
</svg>
