<svg width="19" height="18" viewBox="0 0 19 18" fill="none" xmlns="http://www.w3.org/2000/svg">
<path d="M1.43281 7.37572H9.11006C10.0389 7.38242 10.9375 7.04585 11.6334 6.4306C12.3293 5.81535 12.7736 4.96475 12.8808 4.04212C12.9842 3.00591 12.6408 1.97466 11.9366 1.20739C11.2375 0.439832 10.2479 0.0016265 9.20973 -0.00012207H7.13812C6.8049 -0.00012207 6.49701 0.177735 6.33038 0.466232C6.16377 0.754849 6.16377 1.11043 6.33038 1.39904C6.49699 1.68753 6.8049 1.8654 7.13812 1.8654H9.20973C9.73471 1.86607 10.234 2.09307 10.58 2.48802C10.9258 2.88299 11.0849 3.40784 11.0163 3.92843C10.9476 4.37507 10.7191 4.78156 10.3732 5.07231C10.0274 5.3632 9.58769 5.51843 9.13594 5.50945H1.43264C1.09942 5.50945 0.791531 5.68717 0.624903 5.9758C0.458274 6.26443 0.458295 6.61986 0.624903 6.90848C0.79151 7.19709 1.09942 7.37483 1.43264 7.37483L1.43281 7.37572Z" fill="white"/>
<path d="M18.4834 13.5294C18.3762 12.6067 17.9321 11.7563 17.2363 11.1412C16.5404 10.5259 15.642 10.1892 14.7132 10.1958H8.30006C7.96685 10.1958 7.65896 10.3735 7.49233 10.6621C7.32572 10.9507 7.32572 11.3063 7.49233 11.5948C7.65893 11.8834 7.96684 12.0612 8.30006 12.0612H14.7386C15.1903 12.0522 15.63 12.2075 15.9758 12.4983C16.3218 12.7892 16.5502 13.1957 16.6189 13.6422C16.6875 14.1628 16.5285 14.6876 16.1826 15.0826C15.8366 15.4776 15.3374 15.7045 14.8124 15.7053H12.74C12.4067 15.7053 12.0989 15.8831 11.9322 16.1717C11.7656 16.4602 11.7656 16.8157 11.9322 17.1044C12.0988 17.393 12.4067 17.5707 12.74 17.5707H14.8114C15.8501 17.5698 16.8405 17.1318 17.54 16.3642C18.2439 15.5968 18.587 14.5655 18.4832 13.5294L18.4834 13.5294Z" fill="white"/>
<path d="M6.24482 11.1293C6.24469 10.8818 6.14638 10.6446 5.9716 10.4696C5.79669 10.2945 5.55949 10.1959 5.31215 10.1957H1.43272C1.09951 10.1957 0.791615 10.3734 0.624987 10.662C0.458379 10.9506 0.458379 11.3062 0.624987 11.5947C0.791595 11.8833 1.0995 12.0611 1.43272 12.0611H5.31215C5.55925 12.0608 5.79616 11.9625 5.97095 11.7878C6.14574 11.6132 6.2443 11.3764 6.24484 11.1293L6.24482 11.1293Z" fill="white"/>
<path d="M13.2052 7.97815C13.2847 7.97815 13.3611 7.94654 13.4173 7.89029L14.0495 7.25813H14.0493C14.9181 7.43036 15.8143 7.14134 16.4188 6.49407C17.0233 5.84679 17.2505 4.93314 17.0193 4.07812C16.9917 3.9742 16.9106 3.89303 16.8067 3.86544C15.9516 3.63442 15.038 3.86156 14.3907 4.46599C13.7434 5.07056 13.4544 5.96668 13.6267 6.83545L12.9931 7.46573C12.9073 7.55157 12.8816 7.68055 12.9281 7.79265C12.9746 7.90474 13.0839 7.97774 13.2052 7.97787L13.2052 7.97815Z" fill="white"/>
<path d="M6.73133 13.3242L6.09917 12.6921C5.98145 12.5784 5.79435 12.5801 5.67862 12.6958C5.56289 12.8115 5.56129 12.9986 5.675 13.1164L6.30676 13.7485V13.7484C6.14403 14.5851 6.40573 15.4478 7.00574 16.0531C7.62972 16.6705 9.02447 17.1948 9.69973 16.5031H9.69987C9.93063 15.6483 9.70362 14.7351 9.09959 14.0879C8.49543 13.4407 7.59985 13.1515 6.73132 13.3231L6.73133 13.3242Z" fill="white"/>
</svg>
